<svg
        width="439"
        height="331"
        viewBox="0 0 439 331"
        fill="none"
        xmlns="http://www.w3.org/2000/svg"
      >
        <path
          d="M65.5 308.492C65.5 321.195 47.0163 326.992 31 326.992C14.9837 326.992 0 321.195 0 308.492C0 295.79 12.4837 279.492 28.5 279.492C44.5163 279.492 65.5 295.79 65.5 308.492Z"
          fill="#FFBB7C"
        />
        <path
          d="M80.5002 294C80.5002 308.636 69.5685 321 53 321C36.4315 321 15 298.636 15 284C15 269.364 14.9314 270.5 31.4999 270.5C48.0685 270.5 80.5002 279.364 80.5002 294Z"
          fill="#C08D5E"
        />
        <path
          d="M182.5 273.5C182.5 313.817 145.444 328.5 98.5 328.5C51.5558 328.5 7.5 295.317 7.5 255C7.5 214.683 51.5558 173.5 98.5 173.5C145.444 173.5 182.5 233.183 182.5 273.5Z"
          fill="#FFBB7C"
        />
        <path
          d="M330.5 257.5C330.5 297.817 255.444 321 208.5 321C161.556 321 151 252.817 151 212.5C151 172.183 207.556 161.5 254.5 161.5C301.444 161.5 330.5 217.183 330.5 257.5Z"
          fill="#FFBB7C"
        />
        <path
          d="M348.5 301.5C348.5 341.817 305.444 328 258.5 328C211.556 328 204.5 306.317 204.5 266C204.5 225.683 221.556 179 268.5 179C315.444 179 348.5 261.183 348.5 301.5Z"
          fill="#FFBB7C"
        />
        <path
          d="M103.322 253.466C96.3459 293.175 104.431 311.26 58.1949 303.137C11.959 295.015 13.8942 225.558 20.87 185.849C27.8459 146.14 47.2408 165.681 79.2115 180.13C125.885 218.689 110.298 213.757 103.322 253.466Z"
          fill="#FFBB7C"
        />
        <path
          d="M143.431 252.362C115.871 269.81 133.107 269.248 107.997 229.584C82.8869 189.92 95.4123 181.192 122.973 163.744C150.533 146.297 145.649 146.021 170.76 185.684C195.87 225.348 170.992 234.914 143.431 252.362Z"
          fill="#FFBB7C"
        />
        <path
          d="M64.8725 261.49C65.2597 265.337 58.2235 269.195 49.1566 270.108C40.0897 271.02 32.9699 264.064 32.5827 260.218C38.477 253.876 39.4887 265.051 48.5556 264.138C57.6225 263.225 60.2696 255.702 64.8725 261.49Z"
          fill="black"
          fill-opacity="0.5"
        />
        <path
          d="M142.495 258.987C143.395 263.269 136.895 268.259 127.978 270.133C119.06 272.008 111.032 264.866 110.132 260.584C115.162 252.912 117.663 265.362 126.581 263.488C135.499 261.614 137.133 252.92 142.495 258.987Z"
          fill="black"
          fill-opacity="0.5"
        />
        <path
          d="M95.5 273.5C95.5 276.538 90.7467 280 85.5 280C80.2533 280 75 276.538 75 273.5C75 270.462 80.2533 268.5 85.5 268.5C90.7467 268.5 95.5 270.462 95.5 273.5Z"
          fill="black"
          fill-opacity="0.5"
        />
        <path
          d="M206.5 303C206.5 317.636 184.949 329.988 167 329.988C149.051 329.988 135 325.124 135 310.488C135 295.853 160.551 277 178.5 277C196.449 277 206.5 288.364 206.5 303Z"
          fill="#C08D5E"
        />
        <path
          d="M211.5 304C211.5 318.636 189.949 330.988 172 330.988C154.051 330.988 140 326.124 140 311.488C140 296.853 165.551 278 183.5 278C201.449 278 211.5 289.364 211.5 304Z"
          fill="#FFBB7C"
        />
        <path
          d="M211.5 304C211.5 318.636 189.949 330.988 172 330.988C154.051 330.988 140 326.124 140 311.488C140 296.853 165.551 278 183.5 278C201.449 278 211.5 289.364 211.5 304Z"
          fill="#FFBB7C"
        />
        <path
          d="M45.0004 196.5C46.3011 197.483 50.4119 191.412 54.5 186C58.5881 180.588 74.3856 178.693 73.0849 177.711C71.7842 176.728 55.5883 178.088 51.5001 183.5C47.412 188.912 43.6997 195.517 45.0004 196.5Z"
          fill="#C08D5E"
        />
        <path
          d="M125.414 179.609C125.669 181.219 132.842 179.699 139.541 178.639C146.24 177.578 158.93 187.175 158.675 185.565C158.421 183.955 145.814 173.696 139.115 174.757C132.416 175.818 125.159 177.999 125.414 179.609Z"
          fill="#C08D5E"
        />
        <path
          d="M99.0026 56.9625C124.588 38.943 206.897 93.9724 185.086 62.8253C163.274 31.6781 83.9743 32.0934 58.6454 59.9939C24.4228 97.691 72.0427 123.392 92.4323 128.08C128.485 136.369 73.417 74.982 99.0026 56.9625Z"
          fill="#9ECEA5"
        />
        <path
          d="M340.104 99.6471C337.122 104.547 336.967 101.991 306.117 83.2147C275.268 64.4382 268.621 61.6856 271.603 56.7862C274.585 51.8868 286.067 46.696 316.916 65.4725C347.765 84.2489 343.086 94.7478 340.104 99.6471Z"
          fill="#9ECEA5"
        />
        <path
          d="M222.5 295C226.5 291 255.077 307.311 279.66 312.517C304.244 317.724 345.136 298.86 343.148 308.249C331.148 314.361 296.244 320.224 271.66 315.017C239.5 306 220.5 297 222.5 295Z"
          fill="#C08D5E"
        />
        <path
          d="M223.5 294.5C226 298.5 214.195 297.863 214.654 307.997C215.113 318.13 227.754 320.856 224.654 320.997C221.553 321.137 212.036 319.465 211.577 309.331C211.118 299.198 220.4 294.64 223.5 294.5Z"
          fill="#C08D5E"
        />
        <path
          d="M73.5002 178C119.752 90.6983 190.585 99.2801 266.5 139.5C342.416 179.72 395.003 224.4 342.5 323.5C339.995 334.618 286.916 270.22 211 230C135.085 189.78 73.5002 178 73.5002 178Z"
          fill="#77907A"
          fill-opacity="0.6"
        />
        <path
          d="M73.6716 177.752C119.924 90.4502 224.925 30.2413 300.841 70.4611C376.756 110.681 395.736 223.622 343.233 322.722C340.728 333.84 298.592 258.218 222.676 217.998C146.761 177.778 73.6716 177.752 73.6716 177.752Z"
          fill="#9ECEA5"
        />
      </svg>