<svg width="126" height="112" viewBox="0 0 126 112" fill="none" xmlns="http://www.w3.org/2000/svg">
<path d="M108.749 52.6246C107.417 84.7194 81.983 109.727 51.94 108.48C21.897 107.233 2.50775 80.3653 3.83977 48.2706C5.1718 16.1758 30.9508 -3.61905 59.1232 5.31189C87.2957 14.2428 99.6743 21.2012 108.749 52.6246Z" fill="#66AF71"/>
<path d="M124.771 69.0853C124.852 78.5168 117.405 77.5279 106.201 83.3165C97.5459 86.2406 93.4138 90.693 93.3332 81.2615C96.6988 64.9954 97.3342 42.2577 99.2097 42.2416C110.462 42.1454 124.691 59.6539 124.771 69.0853Z" fill="#66AF71"/>
<path d="M66.1043 48.218C64.8423 58.4144 65.771 21.9337 54.622 20.5538C43.4731 19.1739 20.334 41.6585 21.596 31.4622C22.858 21.2658 43.9301 15.4815 55.0791 16.8614C66.228 18.2413 67.3663 38.0216 66.1043 48.218Z" fill="white"/>
<path d="M66.1043 51.218C64.8423 61.4144 65.771 24.9337 54.622 23.5538C43.4731 22.1739 20.334 44.6585 21.596 34.4622C22.858 24.2658 43.9301 18.4815 55.0791 19.8614C66.228 21.2413 67.3663 41.0216 66.1043 51.218Z" fill="white"/>
<path d="M37.5367 84.3874C31.8425 88.0651 26.6181 82.9516 23.2083 77.7979C19.7986 72.6442 14.7366 68.0584 20.4308 64.3807C26.125 60.703 31.4493 67.0919 34.8591 72.2456C38.2689 77.3993 43.2309 80.7097 37.5367 84.3874Z" fill="white"/>
<path d="M76.4477 89.635C75.6753 96.0883 68.2632 96.7248 61.9911 96.0093C55.719 95.2938 48.8286 96.1399 49.601 89.6866C50.3734 83.2333 58.8574 83.3178 65.1294 84.0334C71.4015 84.7489 77.2201 83.1817 76.4477 89.635Z" fill="white"/>
</svg>
