<svg width="489" height="417" viewBox="0 0 489 417" fill="none" xmlns="http://www.w3.org/2000/svg">
<ellipse cx="217.5" cy="394.5" rx="120.5" ry="22.5" fill="#364A39"/>
<path d="M487.778 144.469C487.778 273.41 403.369 407 291.108 407C178.847 407 87.8416 288.347 87.8416 141.981C83.9326 127.63 178.847 189.096 291.108 189.096C403.369 189.096 487.778 144.469 487.778 144.469Z" fill="#5A8361"/>
<path d="M487.778 144.469C487.778 236.699 403.394 332.435 291.165 332.435C178.937 332.435 87.8414 246.011 87.8414 141.317C83.9335 131.051 178.937 176.571 291.165 176.571C403.394 176.571 487.778 144.469 487.778 144.469Z" fill="#EFFFB1"/>
<path d="M487.779 142.916C487.779 176.419 395.701 205.053 286.974 205.053C174.76 197.471 86.9924 175.076 86.9924 141.573C114.277 115.724 178.248 93.2061 286.974 93.2061C395.701 93.2061 466.123 108.793 487.779 142.916Z" fill="#719476"/>
<path d="M34.3506 221.434C40.9981 252.014 136.29 268.238 100.204 275.981C64.118 283.725 7.25771 229.247 7.25775 191.659C7.2577 140.872 58.3752 154.72 76.1311 165.242C107.527 183.845 27.703 190.854 34.3506 221.434Z" fill="#5A8361"/>
<path d="M246.327 153.724C244.107 170.067 489.399 177 233.008 177C180.904 177 137 167.961 137 156.2C141.44 144.81 181.05 137.888 233.008 134.41C277.405 131.439 244.107 145.305 246.327 153.724Z" fill="#B4F4BE"/>
<path d="M410.84 153.79C410.84 183.818 357 171 311 171C259.979 171 253 171 228.5 159.5C230.5 131 267.437 99.4199 318.458 99.4199C369.479 99.4199 410.84 123.762 410.84 153.79Z" fill="#FFB649"/>
<path d="M453.5 159C453.5 165.351 436.389 166 427 166C417.611 166 402 160.851 402 154.5C402 148.149 408.111 145.5 417.5 145.5C426.889 145.5 453.5 152.649 453.5 159Z" fill="#B4F4BE"/>
<path d="M488.511 144.257C488.511 205.919 403.421 257.87 291.228 257.87C179.036 257.87 86.9923 204.11 86.9923 141.363C83.0856 135.21 165.295 168.212 281.172 173.985C382.145 173.985 488.511 144.257 488.511 144.257Z" fill="#83C08C"/>
<path d="M421.5 176.5C421.5 192.24 411.307 206.5 397.5 206.5C383.693 206.5 394.5 192.24 394.5 176.5C392.5 160.5 372.5 159.5 396 148.5C409.807 148.5 421.5 160.76 421.5 176.5Z" fill="#FFB649"/>
<path d="M387.5 182C387.5 197.74 373.944 213 360.136 213C346.329 213 360.136 198.74 360.136 183C357.5 166.5 350 160.5 366 153.5C379.807 153.5 387.5 166.26 387.5 182Z" fill="#FFB649"/>
<path d="M339.336 31.7753C339.336 44.6444 324.406 56.6303 309.821 56.6303C295.236 56.6303 289.626 55.5185 289.626 42.6494C289.626 29.7803 285.915 10.0273 300.5 10.0273C320.695 11.5807 339.336 18.9063 339.336 31.7753Z" fill="#FFB649"/>
<path d="M424.78 54.4375C413.466 60.5702 395.813 53.156 388.863 40.3337C381.913 27.5113 380.217 22.0497 391.531 15.917C402.845 9.7843 418.442 -2.89138 425.392 9.93098C433.65 28.4254 436.093 48.3048 424.78 54.4375Z" fill="#FFB649"/>
<path d="M410.107 149.13C407.383 162.584 360.847 169.196 323.115 161.557C285.382 153.919 270.681 126.705 273.405 113.251C276.129 99.7969 301.429 105.612 339.162 113.251C376.894 120.89 412.831 135.676 410.107 149.13Z" fill="#AC7D36"/>
<path d="M455.595 82.3321C468.023 124.275 418.805 158.45 364.705 158.45C310.605 158.45 262.969 127.382 275.397 82.3321C301.805 26.4084 314.306 20.1947 364.705 15.5344C422.497 20.1947 423.43 18.6412 455.595 82.3321Z" fill="#FFB649"/>
<path d="M392.5 165.5C391 169 391.5 166 386.5 167C384.5 169.5 381.5 169 380.5 165.5C380.5 163.843 383.186 162.5 386.5 162.5C389.814 162.5 392.5 163.843 392.5 165.5Z" fill="#FFB649"/>
<path d="M360.598 172C360.598 176 354.598 168 349.598 169C347.598 171.5 346.098 169.5 346.098 168.5C346.098 166.843 348.784 165.5 352.098 165.5C355.412 165.5 360.598 170.343 360.598 172Z" fill="#FFB649"/>
<path d="M404.378 63.5909C404.953 68.3504 399.091 72.9736 391.284 73.9171C383.477 74.8606 376.682 71.7671 376.107 67.0076C375.532 62.2481 382.882 69.9361 390.689 68.9926C398.496 68.0491 403.803 58.8314 404.378 63.5909Z" fill="#4A4A4A"/>
<path d="M351.073 66.8318C351.701 72.0301 345.995 76.9953 338.327 77.922C330.66 78.8486 323.935 75.3859 323.306 70.1876C322.678 64.9894 330.01 73.4702 337.677 72.5435C345.345 71.6169 350.445 61.6336 351.073 66.8318Z" fill="#4A4A4A"/>
<path d="M372.821 101.007C373.449 106.206 367.743 111.171 360.075 112.098C352.408 113.024 345.683 109.561 345.054 104.363C344.426 99.1649 351.758 107.646 359.425 106.719C367.093 105.792 372.193 95.8091 372.821 101.007Z" fill="#4A4A4A"/>
<path d="M399.551 97.5865C400.179 102.785 394.472 107.75 386.805 108.677C379.137 109.603 372.412 106.141 371.784 100.942C371.156 95.7441 378.487 104.225 386.155 103.298C393.822 102.372 398.922 92.3883 399.551 97.5865Z" fill="#4A4A4A"/>
<path d="M380.591 86.9923C380.978 90.8617 377.181 96.1541 372.824 99.4199C369.453 96.9263 362.337 92.4151 361.95 88.5457C361.563 84.6764 366.149 87.5042 371.271 86.9923C376.393 86.4805 380.205 83.123 380.591 86.9923Z" fill="#FF8686"/>
</svg>
