 <svg
      width="107"
      height="79"
      viewBox="0 0 107 79"
      fill="none"
      xmlns="http://www.w3.org/2000/svg"
    >
      <path
        d="M71.5 38.7812C71.5 49.0535 70.1968 57.4701 66.023 63.317C61.8784 69.1232 54.8208 72.5 43.0345 72.5C19.4733 72.5 0.5 55.9766 0.5 35.7396C0.5 15.5392 19.4215 0.517944 42.9922 0.500016C54.0389 2.38789 61.1316 6.87757 65.481 13.3776C69.8493 19.9058 71.5 28.534 71.5 38.7812Z"
        fill="white"
        stroke="black"
      />
      <path
        d="M35.5 6C35.5 10.7752 30.7316 21.6179 25 24.5C21 26.5114 7.5 25.7752 7.5 21C7.5 16.2248 10.4659 9.82526 14.6865 9.82526C18.5078 7.9038 26.9026 2.15721 35.5 6Z"
        fill="#66AF71"
      />
      <path
        d="M16.5 38.5C20.3017 47.8785 17.7026 57.1865 12 60C7.80072 60 0.499897 44.6615 0.499897 39.9998C0.499897 35.3382 -0.699285 25.9998 3.5 25.9998C5.5 25.9998 8.89653 26.308 16.5 38.5Z"
        fill="#66AF71"
      />
      <path
        d="M49.25 4.57521C49.25 9.16046 42.0153 8.07752 34 9C29.5733 9 12.5 17.5853 12.5 13C12.5 8.41475 29.0733 1.5 33.5 1.5C37.5079 -0.34502 49.25 -0.0100465 49.25 4.57521Z"
        fill="#66AF71"
      />
      <path
        d="M71.5 38.7812C71.5 49.0535 70.1968 57.4701 66.023 63.317C61.8784 69.1232 54.8208 72.5 43.0345 72.5C19.4733 72.5 0.5 55.9766 0.5 35.7396C0.5 15.5392 19.4215 0.517944 42.9922 0.500016C54.0389 2.38789 61.1316 6.87757 65.481 13.3776C69.8493 19.9058 71.5 28.534 71.5 38.7812Z"
        stroke="black"
      />
      <path
        d="M51.7747 24.5C51.7747 33.0943 45.2913 40 37.3667 40C36.3703 40 35.9439 39.785 35.7759 39.5773C35.6217 39.3869 35.5553 39.0334 35.7675 38.3644C35.9739 37.7135 36.4028 36.9017 37.002 35.9491C37.5974 35.0024 38.3414 33.9469 39.1576 32.8114C39.3644 32.5238 39.5758 32.2311 39.7903 31.934C41.2617 29.8965 42.8813 27.6537 44.1877 25.4217C45.6774 22.8763 46.8116 20.2618 46.8116 17.9118C46.8116 15.5183 45.6413 13.6983 44.0854 12.337C42.5383 10.9833 40.5844 10.0576 38.9302 9.42514C38.521 9.26871 38.1281 9.12948 37.7621 9.00574C45.5058 9.23086 51.7747 16.0491 51.7747 24.5Z"
        fill="white"
        stroke="black"
      />
      <path
        d="M93.4999 34.6308C93.4638 53.9586 79.7135 69.5 62.8889 69.5C46.0857 69.5 34.5 53.9699 34.5 34.5544C34.5 24.8903 37.7922 18.1558 43.1439 13.8249C48.4982 9.49195 55.9808 7.51101 64.4745 7.50005C72.5861 9.85505 78.3528 11.9931 82.836 15.8398C87.309 19.6778 90.5561 25.2643 93.4999 34.6308Z"
        fill="white"
        stroke="black"
      />
      <path
        d="M87.6907 30.3882C82.7687 24.9991 80.8809 20.9476 86.0546 18.0316C88.6281 21.2219 91.2348 27.7554 91.8449 30.7929C92.455 33.8304 96.7649 37.2042 92.6839 38.0015C89.2346 39.9456 90.2249 35.2018 87.6907 30.3882Z"
        fill="#66AF71"
      />
      <path
        d="M93.4999 34.6308C93.4638 53.9586 79.7135 69.5 62.8889 69.5C46.0857 69.5 34.5 53.9699 34.5 34.5544C34.5 24.8903 37.7922 18.1558 43.1439 13.8249C48.4982 9.49195 55.9808 7.51101 64.4745 7.50005C72.5861 9.85505 78.3528 11.9931 82.836 15.8398C87.309 19.6778 90.5561 25.2643 93.4999 34.6308Z"
        stroke="black"
      />
      <path
        d="M104.125 45.3322C104.125 49.7501 101.338 48.3336 95.9999 51C91.8822 52.3349 87.5 55.4179 87.5 51C87.5 46.5821 90.1103 32 91 32C96.3382 32 104.125 40.9143 104.125 45.3322Z"
        fill="#66AF71"
      />
      <path
        d="M67.2301 23.6555C67.1668 23.4338 67.1009 23.2087 67.0324 22.9814C66.508 21.2434 65.8131 19.3256 64.9107 17.8332C64.0266 16.371 62.8392 15.1486 61.28 15.1486C59.8526 15.1486 58.2175 15.9159 56.6333 16.8937C55.1628 17.8012 53.6547 18.9437 52.2896 19.9779C52.1668 20.0709 52.0451 20.1631 51.9247 20.2542C50.4384 21.3783 49.1872 22.2987 48.3159 22.6739C48.1045 22.765 47.9392 22.8129 47.8154 22.8292C47.6919 22.8454 47.6414 22.8262 47.6285 22.8198C47.6284 22.8197 47.6282 22.8196 47.628 22.8195C47.623 22.8171 47.5976 22.805 47.5675 22.7309C47.5322 22.644 47.5 22.4916 47.5 22.243C47.5 21.2802 47.9854 20.3133 48.8755 19.3794C49.7638 18.4476 51.0178 17.5901 52.4531 16.86C55.3297 15.3965 58.8223 14.5 61.28 14.5C63.4931 14.5 65.0567 16.3695 66.0866 19.0656C66.6382 20.5096 67.0077 22.124 67.2301 23.6555Z"
        fill="white"
        stroke="black"
      />
      <path
        d="M95.2361 51.725C95.4764 51.6227 95.7203 51.5172 95.9661 51.4088C97.8715 50.5685 99.9479 49.5301 101.503 48.3705C102.28 47.791 102.951 47.1634 103.403 46.4937C103.858 45.8199 104.111 45.0708 103.981 44.2793C103.861 43.5521 103.505 42.825 103.024 42.1211C102.54 41.4139 101.911 40.7031 101.213 40.0059C99.9328 38.7292 98.3777 37.4599 96.9699 36.3108C96.8431 36.2073 96.7176 36.1049 96.5936 36.0035C95.838 35.3857 95.1389 34.808 94.5528 34.2804C93.9622 33.7488 93.5102 33.2891 93.234 32.9089C93.096 32.719 93.018 32.5706 92.9822 32.4609C92.9478 32.3555 92.9622 32.3182 92.9633 32.3153L92.9633 32.3153C92.9652 32.3105 93.0466 32.144 93.6866 32.0394C94.8447 31.8501 96.0642 32.1643 97.2827 32.8666C98.5014 33.569 99.6891 34.6436 100.757 35.9163C102.901 38.4703 104.489 41.7295 104.885 44.1314C105.062 45.2022 104.691 46.2011 103.888 47.1442C103.077 48.0958 101.848 48.9589 100.396 49.7127C98.8035 50.5394 96.9816 51.2145 95.2361 51.725Z"
        fill="white"
        stroke="black"
      />
      <path
        d="M63.6308 61.7741C63.9561 62.9215 63.868 63.936 63.4318 64.8639C62.99 65.8039 62.1733 66.6914 60.9809 67.5358C58.587 69.2311 54.8031 70.6674 49.9745 71.9991C47.6753 72.6332 44.9161 72.43 42.0135 71.6545C39.117 70.8806 36.1182 69.5476 33.3643 67.9705C30.6107 66.3936 28.1175 64.5816 26.2304 62.8605C25.2868 61.9998 24.5012 61.1679 23.9117 60.4053C23.3176 59.6367 22.9439 58.9658 22.791 58.4263C22.7106 58.1429 22.6994 57.9669 22.7122 57.8676C22.7181 57.8219 22.7279 57.802 22.7307 57.797C22.7325 57.7938 22.7328 57.7936 22.7356 57.7916C22.7473 57.7836 22.8098 57.7504 22.9833 57.7514C23.152 57.7523 23.3787 57.7853 23.6699 57.8574C24.6086 58.0897 25.9417 58.6507 27.5754 59.3381C28.0172 59.524 28.481 59.7192 28.9649 59.9196C31.2057 60.8475 33.821 61.861 36.4929 62.4723C39.1617 63.0829 41.9284 63.3024 44.4588 62.6046C45.1429 62.4159 45.8207 62.2269 46.49 62.0402C50.5787 60.8997 54.3548 59.8464 57.3721 59.4949C59.1278 59.2904 60.5608 59.3332 61.6203 59.6953C62.6443 60.0451 63.3239 60.6915 63.6308 61.7741Z"
        fill="#66AF71"
        stroke="black"
      />
      <path
        d="M50.7374 68.6643C50.7374 71.1685 47.767 72.3848 39.6458 72.3848C31.5245 72.3848 21.5 60 21.9999 57.3848C21.9999 54.8807 27.9113 65.4179 36.0326 65.4179C44.1538 65.4179 50.7374 66.1602 50.7374 68.6643Z"
        fill="#66AF71"
      />
      <path
        d="M53.0444 54.8559C52.7694 55.0302 52.3794 54.9907 51.7759 54.4897C51.1975 54.0095 50.6061 53.2404 50.0944 52.4524C49.9137 52.1742 49.7193 51.8935 49.5341 51.6261C49.4491 51.5033 49.366 51.3834 49.2871 51.2678C49.0291 50.8897 48.81 50.5502 48.6587 50.2468C48.5032 49.9351 48.4497 49.7195 48.4571 49.5776C48.4623 49.4782 48.4953 49.387 48.6562 49.2851C48.7868 49.2023 48.9303 49.1845 49.1369 49.2576C49.3637 49.3379 49.6365 49.5212 49.9437 49.8098C50.5553 50.3843 51.1733 51.2501 51.6905 52.0465C51.9222 52.4032 52.1672 52.7396 52.3885 53.0435C52.424 53.0922 52.4589 53.1401 52.493 53.1871C52.7465 53.5363 52.9524 53.8294 53.0914 54.0872C53.2345 54.3527 53.2665 54.5101 53.2581 54.5993C53.2535 54.6489 53.2346 54.7353 53.0444 54.8559Z"
        fill="black"
        stroke="black"
      />
      <path
        d="M72.2577 64.2769C72.2162 64.6001 71.9421 64.8699 71.1921 65.0099C70.4705 65.1445 69.5228 65.1054 68.6096 64.9933C68.2867 64.9537 67.953 64.9229 67.6355 64.8937C67.4899 64.8803 67.3477 64.8671 67.2114 64.8536C66.7652 64.8094 66.3733 64.7601 66.0513 64.6823C65.7204 64.6024 65.5275 64.5065 65.4276 64.4125C65.3582 64.3471 65.3092 64.2642 65.3335 64.0744C65.3534 63.9199 65.4308 63.7996 65.6132 63.6899C65.8139 63.5692 66.1208 63.4783 66.5294 63.4281C67.3432 63.3282 68.3805 63.4086 69.304 63.5219C69.7182 63.5728 70.1255 63.6004 70.493 63.6254C70.5519 63.6294 70.6097 63.6333 70.6664 63.6372C71.0884 63.6666 71.4369 63.6963 71.7168 63.7545C72.0049 63.8143 72.1401 63.8894 72.1997 63.9503C72.2323 63.9836 72.2864 64.053 72.2577 64.2769Z"
        fill="black"
        stroke="black"
      />
    </svg>